HIERARCHY
ROOT Hips
{
  OFFSET 90.7885 88.945 -76.2838
  CHANNELS 6 Xposition Yposition Zposition Zrotation Xrotation Yrotation
  JOINT LeftUpLeg
  {
    OFFSET 8.64259 1.95398 -2.38835
    CHANNELS 3 Zrotation Xrotation Yrotation
    JOINT LeftLeg
    {
      OFFSET 43.7702 0 0
      CHANNELS 3 Zrotation Xrotation Yrotation
      JOINT LeftFoot
      {
        OFFSET 40.6238 0 0
        CHANNELS 3 Zrotation Xrotation Yrotation
        JOINT LeftToeBase
        {
          OFFSET 12.7242 0 0
          CHANNELS 3 Zrotation Xrotation Yrotation
          End Site
          {
            OFFSET 0 0 0
          }
        }
      }
    }
  }
  JOINT RightUpLeg
  {
    OFFSET -8.2249 1.95398 -2.59336
    CHANNELS 3 Zrotation Xrotation Yrotation
    JOINT RightLeg
    {
      OFFSET 43.5653 0 0
      CHANNELS 3 Zrotation Xrotation Yrotation
      JOINT RightFoot
      {
        OFFSET 40.6238 0 0
        CHANNELS 3 Zrotation Xrotation Yrotation
        JOINT RightToeBase
        {
          OFFSET 12.7242 0 0
          CHANNELS 3 Zrotation Xrotation Yrotation
          End Site
          {
            OFFSET 0 0 0
          }
        }
      }
    }
  }
  JOINT Spine
  {
    OFFSET 0.165834 0.87714 6.61349
    CHANNELS 3 Zrotation Xrotation Yrotation
    JOINT Spine1
    {
      OFFSET 7.38963 1.71661e-005 0
      CHANNELS 3 Zrotation Xrotation Yrotation
      JOINT Spine2
      {
        OFFSET 11.9445 1.14441e-005 0
        CHANNELS 3 Zrotation Xrotation Yrotation
        JOINT Spine3
        {
          OFFSET 14.7254 4.19617e-005 0
          CHANNELS 3 Zrotation Xrotation Yrotation
          JOINT Spine4
          {
            OFFSET 10.9679 0 0
            CHANNELS 3 Zrotation Xrotation Yrotation
            JOINT RightShoulder
            {
              OFFSET 2.46616 -1.6653 3.69651
              CHANNELS 3 Zrotation Xrotation Yrotation
              JOINT RightArm
              {
                OFFSET 13.0012 0 0
                CHANNELS 3 Zrotation Xrotation Yrotation
                JOINT RightForeArm
                {
                  OFFSET 28.7848 1.52588e-005 0
                  CHANNELS 3 Zrotation Xrotation Yrotation
                  JOINT RightHand
                  {
                    OFFSET 26.5688 1.52588e-005 0
                    CHANNELS 3 Zrotation Xrotation Yrotation
                    End Site
                    {
                      OFFSET 0 0 0
                    }
                  }
                }
              }
            }
            JOINT LeftShoulder
            {
              OFFSET 2.38034 -1.29275 -3.7523
              CHANNELS 3 Zrotation Xrotation Yrotation
              JOINT LeftArm
              {
                OFFSET 16.3182 6.10352e-005 0
                CHANNELS 3 Zrotation Xrotation Yrotation
                JOINT LeftForeArm
                {
                  OFFSET 27.0901 0 0
                  CHANNELS 3 Zrotation Xrotation Yrotation
                  JOINT LeftHand
                  {
                    OFFSET 24.5451 1.52588e-005 0
                    CHANNELS 3 Zrotation Xrotation Yrotation
                    End Site
                    {
                      OFFSET 0 0 0
                    }
                  }
                }
              }
            }
            JOINT Neck
            {
              OFFSET 5.0226 -0.0266342 0
              CHANNELS 3 Zrotation Xrotation Yrotation
              JOINT Head
              {
                OFFSET 6.69363 2.86102e-005 0
                CHANNELS 3 Zrotation Xrotation Yrotation
                End Site
                {
                  OFFSET 0 0 0
                }
              }
            }
          }
        }
      }
    }
  }
}
MOTION
Frames:	7
Frame Time:	0.0416667
35.405 99.6535 19.7169 -150.413 -82.9637 -151.582 -176.618 -3.97695 91.1992 -12.4228 -2.70955 -0.478391 71.901 5.06615 -3.34745 17.4985 -2.96093 5.34934 168.546 -3.12164 84.3583 -11.6565 -11.7983 -1.17494 67.4509 -4.0455 1.58991 26.1085 -1.0608 2.95085 0.301983 7.43405 -89.9772 12.006 0.611222 -0.0209761 0.335203 0.609698 -0.0478605 -22.201 0.589256 0.163706 -2.18839 0.589267 0.163701 92.0031 -28.4479 -103.284 43.7589 -17.4614 -5.16419 5.1276 -18.651 -16.1844 -22.9518 -0.199505 -8.84323 -86.8244 -52.7545 83.9234 -22.961 22.7826 -15.0007 0.98633 -2.55389 -5.89008 -1.89743 -0.0985303 -6.30082 6.29679 -1.82828 -1.95342 -7.16474 -1.53978 2.66881 
35.4194 99.6775 19.6358 -150.917 -83.1854 -152.105 -176.833 -3.88946 91.0714 -12.1368 -2.91716 -0.268894 71.7153 4.91129 -3.94555 16.8882 -3.33881 5.84777 168.668 -3.01408 84.4569 -11.5365 -11.7556 -1.25211 67.1157 -3.90273 1.33705 25.4965 -0.837256 2.55877 0.295258 7.40059 -90.0153 12.073 0.579763 -0.0942615 0.402147 0.575052 -0.119692 -22.134 0.581294 0.0843436 -2.12139 0.581285 0.0843432 92.2099 -28.1255 -102.968 43.8379 -17.9271 -5.10903 4.91404 -20.4696 -15.7522 -24.0172 -0.247947 -8.99178 -87.3159 -53.9393 83.3949 -21.4262 23.7824 -14.85 0.141695 -4.58025 -5.82268 0.129242 -0.167583 -8.02846 5.5421 -1.92267 -1.1549 -6.17406 -1.74479 1.90892 
35.4562 99.6561 19.5902 -150.5 -83.2831 -151.716 -176.883 -3.69503 90.9512 -12.2201 -2.46616 -0.297193 71.5542 4.89225 -3.4989 16.1307 -2.94716 5.43608 168.653 -2.81664 84.4169 -11.6291 -11.4149 -1.21826 67.3132 -3.95163 1.67804 25.3322 -0.849004 2.61225 0.310394 7.41139 -90.0346 12.0516 0.600752 -0.13491 0.380826 0.594239 -0.161222 -22.1554 0.613527 0.0518909 -2.1428 0.613523 0.0518791 92.342 -28.0245 -102.73 43.4753 -17.894 -5.80927 6.13734 -23.1146 -14.4075 -23.4198 -0.215397 -10.1 -87.4702 -54.4149 83.2484 -21.1134 23.516 -15.2074 0.182414 -4.51615 -5.58664 -0.60375 -0.151733 -8.32918 5.64575 -1.91786 -0.741805 -5.95799 -1.80875 1.77864 
35.485 99.6638 19.5511 -149.351 -83.2662 -150.636 -176.878 -3.71449 90.8974 -12.0742 -2.74196 -0.385246 71.5608 4.89274 -3.754 15.3978 -3.05108 5.60969 168.62 -2.6892 84.339 -11.6734 -11.6755 -1.23148 67.4349 -4.00411 1.48031 24.997 -0.838673 2.64497 0.3181 7.41241 -89.9944 12.0495 0.635117 -0.0582626 0.378708 0.631927 -0.0861665 -22.1577 0.623254 0.135322 -2.14502 0.623257 0.135311 92.2064 -28.3521 -102.899 43.4211 -17.9183 -5.99289 6.41316 -22.2713 -13.9333 -24.2366 -0.151239 -10.044 -87.1783 -53.5324 83.5297 -22.151 22.8623 -15.1961 0.586997 -3.7447 -5.18567 -0.369892 -0.156021 -8.1122 5.60464 -1.92218 -1.05656 -6.02514 -1.7552 1.77789 
35.4912 99.6671 19.5522 -149.263 -83.2908 -150.464 -176.842 -3.58098 91.0194 -12.2473 -2.83202 -0.35932 71.4621 4.8057 -4.08143 15.9364 -2.60372 5.04606 168.662 -2.73136 84.4274 -11.539 -11.6132 -1.21748 67.2227 -3.91056 1.63377 25.2783 -0.845071 2.61253 0.314624 7.41284 -90.0042 12.0486 0.623577 -0.0765619 0.377768 0.61961 -0.103928 -22.1586 0.617757 0.114402 -2.14591 0.617758 0.114401 92.2235 -28.3112 -102.877 43.3954 -17.7619 -6.05189 6.12998 -22.8393 -13.8412 -24.7139 -0.266729 -9.50557 -87.025 -53.4918 83.7454 -22.2091 22.6118 -15.2836 0.717621 -3.07528 -5.04074 -0.491354 -0.158906 -8.53295 5.50014 -1.85275 -1.08476 -6.31404 -1.69566 1.9959 
35.5135 99.6557 19.584 -149.628 -83.2245 -150.747 -176.779 -3.6277 91.0527 -12.3151 -2.34273 -0.398507 71.5853 4.91482 -3.24559 16.0222 -2.86992 5.35224 168.661 -2.8763 84.4656 -11.4645 -11.6698 -1.20223 67.1206 -3.88557 1.58932 25.5311 -0.79555 2.46177 0.309219 7.43266 -90.0546 12.0091 0.589038 -0.173042 0.33829 0.580847 -0.198798 -22.1979 0.613808 0.0120044 -2.18529 0.613806 0.0119989 92.2421 -28.1282 -102.901 43.1814 -17.9029 -6.06129 6.11116 -21.5961 -13.6152 -23.5608 -0.023646 -10.6901 -87.1805 -54.2971 83.6452 -20.8097 23.9205 -15.2715 -0.0386215 -4.8108 -5.71177 0.10293 -0.175195 -8.32248 5.4565 -1.80997 -0.476829 -6.36781 -1.75483 1.6375 
35.5579 99.6671 19.6017 -150.149 -83.403 -151.307 -176.769 -3.47129 91.0678 -12.3894 -2.53268 -0.43701 71.5997 4.87584 -3.81985 15.7663 -2.71489 5.18798 168.625 -2.77747 84.429 -11.4626 -11.5784 -1.18024 67.1963 -3.92133 1.52426 25.2302 -0.832142 2.59431 0.319336 7.41982 -90.012 12.0346 0.629269 -0.0926776 0.363783 0.624572 -0.120289 -22.1726 0.628023 0.100733 -2.15993 0.628023 0.10073 92.344 -28.5689 -102.544 43.0813 -18.3075 -6.15292 6.05307 -19.7275 -13.8124 -24.3038 0.0638257 -10.409 -87.1234 -53.3047 83.5737 -22.3392 22.4354 -15.3625 0.835118 -2.8332 -5.05745 -0.809446 -0.14923 -8.66082 5.44775 -1.96582 -1.06881 -6.5663 -1.80502 1.74288 
